<mxfile host="app.diagrams.net" modified="2024-03-27T15:46:40.729Z" agent="Mozilla/5.0 (Windows NT 10.0; Win64; x64) AppleWebKit/537.36 (KHTML, like Gecko) Chrome/123.0.0.0 Safari/537.36" etag="V4IU5hWodmPDLOStQ17P" version="24.0.7" type="github">
  <diagram name="第 1 页" id="4bKVYmp6gC8IJLYEQT4g">
    <mxGraphModel dx="594" dy="417" grid="1" gridSize="10" guides="1" tooltips="1" connect="1" arrows="1" fold="1" page="1" pageScale="1" pageWidth="827" pageHeight="1169" math="0" shadow="0">
      <root>
        <mxCell id="0" />
        <mxCell id="1" parent="0" />
        <mxCell id="SrKpxrNgZF3burnjYcv5-1" value="" style="rounded=0;whiteSpace=wrap;html=1;" parent="1" vertex="1">
          <mxGeometry x="40" y="320" width="2590" height="60" as="geometry" />
        </mxCell>
        <mxCell id="SrKpxrNgZF3burnjYcv5-2" value="getGlobalSetting()" style="rounded=0;whiteSpace=wrap;html=1;fillColor=#d5e8d4;strokeColor=#82b366;" parent="1" vertex="1">
          <mxGeometry x="40" y="320" width="190" height="60" as="geometry" />
        </mxCell>
        <mxCell id="SrKpxrNgZF3burnjYcv5-6" value="checkUserStatus()" style="rounded=0;whiteSpace=wrap;html=1;fillColor=#d5e8d4;strokeColor=#82b366;" parent="1" vertex="1">
          <mxGeometry x="230" y="320" width="370" height="60" as="geometry" />
        </mxCell>
        <mxCell id="SrKpxrNgZF3burnjYcv5-7" value="&lt;div&gt;/api/v3/user/settings 接口&lt;/div&gt;&lt;div&gt;100ms&lt;/div&gt;" style="rounded=0;whiteSpace=wrap;html=1;" parent="1" vertex="1">
          <mxGeometry x="40" y="260" width="190" height="60" as="geometry" />
        </mxCell>
        <mxCell id="SrKpxrNgZF3burnjYcv5-8" value="" style="rounded=0;whiteSpace=wrap;html=1;" parent="1" vertex="1">
          <mxGeometry x="230" y="260" width="370" height="60" as="geometry" />
        </mxCell>
        <mxCell id="SrKpxrNgZF3burnjYcv5-9" value="sleep 500ms" style="rounded=0;whiteSpace=wrap;html=1;" parent="1" vertex="1">
          <mxGeometry x="230" y="260" width="60" height="60" as="geometry" />
        </mxCell>
        <mxCell id="SrKpxrNgZF3burnjYcv5-10" value="getDeviceFeatureHeader&lt;br&gt;获取设备信息 100ms" style="rounded=0;whiteSpace=wrap;html=1;" parent="1" vertex="1">
          <mxGeometry x="290" y="260" width="150" height="60" as="geometry" />
        </mxCell>
        <mxCell id="SrKpxrNgZF3burnjYcv5-11" value="/v2/user/user-state&lt;br&gt;用户状态接口 200ms" style="rounded=0;whiteSpace=wrap;html=1;" parent="1" vertex="1">
          <mxGeometry x="440" y="260" width="160" height="60" as="geometry" />
        </mxCell>
        <mxCell id="SrKpxrNgZF3burnjYcv5-12" value="Clock.startSync()" style="rounded=0;whiteSpace=wrap;html=1;fillColor=#d5e8d4;strokeColor=#82b366;" parent="1" vertex="1">
          <mxGeometry x="600" y="320" width="240" height="60" as="geometry" />
        </mxCell>
        <mxCell id="SrKpxrNgZF3burnjYcv5-13" value="/api/v2/channels/sync-time&lt;br&gt;50ms" style="rounded=0;whiteSpace=wrap;html=1;" parent="1" vertex="1">
          <mxGeometry x="600" y="260" width="240" height="60" as="geometry" />
        </mxCell>
        <mxCell id="SrKpxrNgZF3burnjYcv5-15" value="sleep()&lt;br&gt;200ms" style="rounded=0;whiteSpace=wrap;html=1;fillColor=#d5e8d4;strokeColor=#82b366;" parent="1" vertex="1">
          <mxGeometry x="840" y="320" width="120" height="60" as="geometry" />
        </mxCell>
        <mxCell id="SrKpxrNgZF3burnjYcv5-20" value="batchSetReadStore.init()" style="rounded=0;whiteSpace=wrap;html=1;fillColor=#d5e8d4;strokeColor=#82b366;" parent="1" vertex="1">
          <mxGeometry x="960" y="320" width="160" height="60" as="geometry" />
        </mxCell>
        <mxCell id="SrKpxrNgZF3burnjYcv5-21" value="getUnreads" style="rounded=0;whiteSpace=wrap;html=1;fillColor=#d5e8d4;strokeColor=#82b366;" parent="1" vertex="1">
          <mxGeometry x="1121" y="320" width="179" height="60" as="geometry" />
        </mxCell>
        <mxCell id="SrKpxrNgZF3burnjYcv5-22" value="/v2/messages/unread&lt;br&gt;200ms" style="rounded=0;whiteSpace=wrap;html=1;" parent="1" vertex="1">
          <mxGeometry x="1120" y="260" width="180" height="60" as="geometry" />
        </mxCell>
        <mxCell id="SrKpxrNgZF3burnjYcv5-23" value="/v3/message/batch-clear&lt;br&gt;有未同步未读时调用 100ms" style="rounded=0;whiteSpace=wrap;html=1;" parent="1" vertex="1">
          <mxGeometry x="960" y="260" width="160" height="60" as="geometry" />
        </mxCell>
        <mxCell id="SrKpxrNgZF3burnjYcv5-24" value="200ms" style="rounded=0;whiteSpace=wrap;html=1;" parent="1" vertex="1">
          <mxGeometry x="840" y="260" width="120" height="60" as="geometry" />
        </mxCell>
        <mxCell id="SrKpxrNgZF3burnjYcv5-25" value="Promise.all( [getGuilds(), getConversationList(),getRelationListV3()] )" style="rounded=0;whiteSpace=wrap;html=1;fillColor=#d5e8d4;strokeColor=#82b366;" parent="1" vertex="1">
          <mxGeometry x="1300" y="320" width="420" height="60" as="geometry" />
        </mxCell>
        <mxCell id="SrKpxrNgZF3burnjYcv5-26" value="/api/v3/guild/index、/v3/conversation/list、/api/v3/friend&lt;br&gt;最长800ms" style="rounded=0;whiteSpace=wrap;html=1;" parent="1" vertex="1">
          <mxGeometry x="1300" y="260" width="420" height="60" as="geometry" />
        </mxCell>
        <mxCell id="SrKpxrNgZF3burnjYcv5-27" value="getVoiceSetting()" style="rounded=0;whiteSpace=wrap;html=1;fillColor=#d5e8d4;strokeColor=#82b366;" parent="1" vertex="1">
          <mxGeometry x="1720" y="320" width="360" height="60" as="geometry" />
        </mxCell>
        <mxCell id="SrKpxrNgZF3burnjYcv5-28" value="/api/v3/gateway/voice-gray-setting&lt;br&gt;80ms" style="rounded=0;whiteSpace=wrap;html=1;" parent="1" vertex="1">
          <mxGeometry x="1720" y="260" width="230" height="60" as="geometry" />
        </mxCell>
        <mxCell id="SrKpxrNgZF3burnjYcv5-29" value="getDevice&lt;br&gt;20ms" style="rounded=0;whiteSpace=wrap;html=1;" parent="1" vertex="1">
          <mxGeometry x="1950" y="260" width="130" height="60" as="geometry" />
        </mxCell>
        <mxCell id="SrKpxrNgZF3burnjYcv5-30" value="getSdkConfig()" style="rounded=0;whiteSpace=wrap;html=1;fillColor=#d5e8d4;strokeColor=#82b366;" parent="1" vertex="1">
          <mxGeometry x="2080" y="320" width="200" height="60" as="geometry" />
        </mxCell>
        <mxCell id="SrKpxrNgZF3burnjYcv5-31" value="/api/v3/gateway/voice-sdk-check&lt;br&gt;90ms" style="rounded=0;whiteSpace=wrap;html=1;" parent="1" vertex="1">
          <mxGeometry x="2080" y="260" width="200" height="60" as="geometry" />
        </mxCell>
        <mxCell id="SrKpxrNgZF3burnjYcv5-32" value="IMSocketCtrl.connect()" style="rounded=0;whiteSpace=wrap;html=1;fillColor=#d5e8d4;strokeColor=#82b366;" parent="1" vertex="1">
          <mxGeometry x="2280" y="320" width="200" height="60" as="geometry" />
        </mxCell>
        <mxCell id="SrKpxrNgZF3burnjYcv5-33" value="200ms" style="rounded=0;whiteSpace=wrap;html=1;" parent="1" vertex="1">
          <mxGeometry x="2280" y="260" width="200" height="60" as="geometry" />
        </mxCell>
        <mxCell id="SrKpxrNgZF3burnjYcv5-34" value="loading完成" style="rounded=0;whiteSpace=wrap;html=1;" parent="1" vertex="1">
          <mxGeometry x="2480" y="320" width="80" height="60" as="geometry" />
        </mxCell>
        <mxCell id="pUlWCuJQy-zWhuZY4_I1-5" style="edgeStyle=orthogonalEdgeStyle;rounded=0;orthogonalLoop=1;jettySize=auto;html=1;exitX=1;exitY=0.5;exitDx=0;exitDy=0;entryX=0;entryY=0.5;entryDx=0;entryDy=0;" edge="1" parent="1" source="pUlWCuJQy-zWhuZY4_I1-3" target="pUlWCuJQy-zWhuZY4_I1-4">
          <mxGeometry relative="1" as="geometry" />
        </mxCell>
        <mxCell id="pUlWCuJQy-zWhuZY4_I1-3" value="getUserIp" style="ellipse;whiteSpace=wrap;html=1;" vertex="1" parent="1">
          <mxGeometry x="140" y="540" width="120" height="80" as="geometry" />
        </mxCell>
        <mxCell id="pUlWCuJQy-zWhuZY4_I1-4" value="user-state" style="ellipse;whiteSpace=wrap;html=1;" vertex="1" parent="1">
          <mxGeometry x="380" y="540" width="120" height="80" as="geometry" />
        </mxCell>
        <mxCell id="pUlWCuJQy-zWhuZY4_I1-6" value="完成" style="text;html=1;align=center;verticalAlign=middle;whiteSpace=wrap;rounded=0;" vertex="1" parent="1">
          <mxGeometry x="280" y="540" width="60" height="30" as="geometry" />
        </mxCell>
        <mxCell id="pUlWCuJQy-zWhuZY4_I1-7" value="getUserIp" style="ellipse;whiteSpace=wrap;html=1;" vertex="1" parent="1">
          <mxGeometry x="120" y="890" width="120" height="80" as="geometry" />
        </mxCell>
        <mxCell id="pUlWCuJQy-zWhuZY4_I1-8" value="user-state" style="ellipse;whiteSpace=wrap;html=1;" vertex="1" parent="1">
          <mxGeometry x="370" y="1030" width="120" height="80" as="geometry" />
        </mxCell>
        <mxCell id="pUlWCuJQy-zWhuZY4_I1-10" style="edgeStyle=orthogonalEdgeStyle;rounded=0;orthogonalLoop=1;jettySize=auto;html=1;exitX=1;exitY=0.5;exitDx=0;exitDy=0;entryX=0;entryY=0.5;entryDx=0;entryDy=0;" edge="1" parent="1" source="pUlWCuJQy-zWhuZY4_I1-9" target="pUlWCuJQy-zWhuZY4_I1-8">
          <mxGeometry relative="1" as="geometry" />
        </mxCell>
        <mxCell id="pUlWCuJQy-zWhuZY4_I1-9" value="sleep" style="ellipse;whiteSpace=wrap;html=1;" vertex="1" parent="1">
          <mxGeometry x="120" y="1030" width="120" height="80" as="geometry" />
        </mxCell>
        <mxCell id="pUlWCuJQy-zWhuZY4_I1-11" value="500ms" style="text;html=1;align=center;verticalAlign=middle;whiteSpace=wrap;rounded=0;" vertex="1" parent="1">
          <mxGeometry x="270" y="1030" width="60" height="30" as="geometry" />
        </mxCell>
      </root>
    </mxGraphModel>
  </diagram>
</mxfile>
